{
  "accessors": [
    {
      "bufferView": 2,
      "componentType": 5126,
      "count": 1107,
      "max": [
        2.4585399627685547,
        3.6677100658416748,
        8.4031600952148438
      ],
      "min": [
        -6.3536100387573242,
        -3.6677100658416748,
        0
      ],
      "type": "VEC3"
    },
    {
      "bufferView": 2,
      "byteOffset": 13284,
      "componentType": 5126,
      "count": 1107,
      "max": [
        0.99977952241897583,
        1,
        0.99986523389816284
      ],
      "min": [
        -0.99999445676803589,
        -1,
        -1
      ],
      "type": "VEC3"
    },
    {
      "bufferView": 1,
      "componentType": 5126,
      "count": 1107,
      "max": [
        0.9962800145149231,
        0.99453002214431763
      ],
      "min": [
        0.0035600000992417336,
        0.003060000017285347
      ],
      "type": "VEC2"
    },
    {
      "bufferView": 0,
      "componentType": 5125,
      "count": 3528,
      "max": [
        1106
      ],
      "min": [
        0
      ],
      "type": "SCALAR"
    },
    {
      "bufferView": 2,
      "byteOffset": 26568,
      "componentType": 5126,
      "count": 81,
      "max": [
        2.1857399940490723,
        2.6697299480438232,
        7.8055500984191895
      ],
      "min": [
        1.4985899925231934,
        -2.6697299480438232,
        3.4742801189422607
      ],
      "type": "VEC3"
    },
    {
      "bufferView": 2,
      "byteOffset": 27540,
      "componentType": 5126,
      "count": 81,
      "max": [
        0.99956095218658447,
        0.20063650608062744,
        0.27537509799003601
      ],
      "min": [
        0.94016736745834351,
        -0.20063650608062744,
        -0.21918711066246033
      ],
      "type": "VEC3"
    },
    {
      "bufferView": 1,
      "byteOffset": 8856,
      "componentType": 5126,
      "count": 81,
      "max": [
        1,
        1
      ],
      "min": [
        0,
        0
      ],
      "type": "VEC2"
    },
    {
      "bufferView": 0,
      "byteOffset": 14112,
      "componentType": 5125,
      "count": 384,
      "max": [
        80
      ],
      "min": [
        0
      ],
      "type": "SCALAR"
    },
    {
      "bufferView": 2,
      "byteOffset": 28512,
      "componentType": 5126,
      "count": 2583,
      "max": [
        5.5555601119995117,
        3.6363599300384521,
        1.5504499673843384
      ],
      "min": [
        -3.432499885559082,
        -5.1111898422241211,
        0
      ],
      "type": "VEC3"
    },
    {
      "bufferView": 2,
      "byteOffset": 59508,
      "componentType": 5126,
      "count": 2583,
      "max": [
        1,
        1,
        0.99971038103103638
      ],
      "min": [
        -0.99919873476028442,
        -1,
        -1
      ],
      "type": "VEC3"
    },
    {
      "bufferView": 1,
      "byteOffset": 9504,
      "componentType": 5126,
      "count": 2583,
      "max": [
        0.99327999353408813,
        0.98610997200012207
      ],
      "min": [
        0.0067199999466538429,
        0.0067199999466538429
      ],
      "type": "VEC2"
    },
    {
      "bufferView": 0,
      "byteOffset": 15648,
      "componentType": 5125,
      "count": 6240,
      "max": [
        2582
      ],
      "min": [
        0
      ],
      "type": "SCALAR"
    }
  ],
  "asset": {
    "extras": {
      "author": "maxdragonn (https://sketchfab.com/maxdragon)",
      "license": "CC-BY-4.0 (http://creativecommons.org/licenses/by/4.0/)",
      "source": "https://sketchfab.com/3d-models/ibm-3278-terminal-b0470478089a4462afb4d5c4dd827b22",
      "title": "IBM 3278 terminal"
    },
    "generator": "Sketchfab-9.99.1",
    "version": "2.0"
  },
  "bufferViews": [
    {
      "buffer": 0,
      "byteLength": 40608,
      "byteOffset": 0,
      "name": "floatBufferViews",
      "target": 34963
    },
    {
      "buffer": 0,
      "byteLength": 30168,
      "byteOffset": 40608,
      "byteStride": 8,
      "name": "floatBufferViews",
      "target": 34962
    },
    {
      "buffer": 0,
      "byteLength": 90504,
      "byteOffset": 70776,
      "byteStride": 12,
      "name": "floatBufferViews",
      "target": 34962
    }
  ],
  "buffers": [
    {
      "byteLength": 161280,
      "uri": "scene.bin"
    }
  ],
  "images": [
    {
      "uri": "textures/ibm_3278_baseColor.png"
    },
    {
      "uri": "textures/display_baseColor.png"
    },
    {
      "uri": "textures/display_emissive.png"
    },
    {
      "uri": "textures/ibm_3278_keyboard_baseColor.png"
    }
  ],
  "materials": [
    {
      "doubleSided": true,
      "emissiveFactor": [
        0,
        0,
        0
      ],
      "name": "ibm_3278",
      "pbrMetallicRoughness": {
        "baseColorFactor": [
          1,
          1,
          1,
          1
        ],
        "baseColorTexture": {
          "index": 0,
          "texCoord": 0
        },
        "metallicFactor": 0,
        "roughnessFactor": 1
      }
    },
    {
      "doubleSided": true,
      "emissiveFactor": [
        0.13870395028850424,
        0.13870395028850424,
        0.13870395028850424
      ],
      "emissiveTexture": {
        "index": 2,
        "texCoord": 0
      },
      "name": "display",
      "pbrMetallicRoughness": {
        "baseColorFactor": [
          1,
          1,
          1,
          1
        ],
        "baseColorTexture": {
          "index": 1,
          "texCoord": 0
        },
        "metallicFactor": 0,
        "roughnessFactor": 0.11666484261471766
      }
    },
    {
      "doubleSided": true,
      "emissiveFactor": [
        0,
        0,
        0
      ],
      "name": "ibm_3278_keyboard",
      "pbrMetallicRoughness": {
        "baseColorFactor": [
          1,
          1,
          1,
          1
        ],
        "baseColorTexture": {
          "index": 3,
          "texCoord": 0
        },
        "metallicFactor": 0,
        "roughnessFactor": 1
      }
    }
  ],
  "meshes": [
    {
      "name": "ibm_3278_0",
      "primitives": [
        {
          "attributes": {
            "NORMAL": 1,
            "POSITION": 0,
            "TEXCOORD_0": 2
          },
          "indices": 3,
          "material": 0,
          "mode": 4
        }
      ]
    },
    {
      "name": "ibm_3278_1",
      "primitives": [
        {
          "attributes": {
            "NORMAL": 5,
            "POSITION": 4,
            "TEXCOORD_0": 6
          },
          "indices": 7,
          "material": 1,
          "mode": 4
        }
      ]
    },
    {
      "name": "ibm_3278_2",
      "primitives": [
        {
          "attributes": {
            "NORMAL": 9,
            "POSITION": 8,
            "TEXCOORD_0": 10
          },
          "indices": 11,
          "material": 2,
          "mode": 4
        }
      ]
    }
  ],
  "nodes": [
    {
      "children": [
        1
      ],
      "name": "RootNode (gltf orientation matrix)",
      "rotation": [
        -0.70710678118654746,
        -0,
        -0,
        0.70710678118654757
      ]
    },
    {
      "children": [
        2
      ],
      "name": "RootNode (model correction matrix)"
    },
    {
      "children": [
        3,
        5
      ],
      "name": "Root"
    },
    {
      "children": [
        4
      ],
      "matrix": [
        -0.29086000000000006,
        0.95517000000000007,
        -0.05519000000000001,
        0,
        -0.77110000000000001,
        -0.19988000000000003,
        0.60452000000000006,
        0,
        0.56639000000000006,
        0.21839000000000003,
        0.7946700000000001,
        0,
        4.0762500000000008,
        1.00545,
        5.9038600000000008,
        1
      ],
      "name": "Lamp"
    },
    {
      "name": "Lamp"
    },
    {
      "children": [
        6,
        7,
        8
      ],
      "matrix": [
        3.2076000000000002,
        0,
        0,
        0,
        0,
        3.2076000000000002,
        0,
        0,
        0,
        0,
        3.2076000000000002,
        0,
        0,
        0,
        0,
        1
      ],
      "name": "ibm_3278"
    },
    {
      "mesh": 0,
      "name": "ibm_3278_0"
    },
    {
      "mesh": 1,
      "name": "ibm_3278_1"
    },
    {
      "mesh": 2,
      "name": "ibm_3278_2"
    }
  ],
  "samplers": [
    {
      "magFilter": 9729,
      "minFilter": 9987,
      "wrapS": 10497,
      "wrapT": 10497
    }
  ],
  "scene": 0,
  "scenes": [
    {
      "name": "OSG_Scene",
      "nodes": [
        0
      ]
    }
  ],
  "textures": [
    {
      "sampler": 0,
      "source": 0
    },
    {
      "sampler": 0,
      "source": 1
    },
    {
      "sampler": 0,
      "source": 2
    },
    {
      "sampler": 0,
      "source": 3
    }
  ]
}

